<svg width="240" height="240" viewBox="0 0 240 240" fill="none" xmlns="http://www.w3.org/2000/svg">
<circle cx="2.6087" cy="2.6087" r="2.6087" fill="#888888"/>
<circle cx="49.5648" cy="2.6087" r="2.6087" fill="#888888"/>
<circle cx="96.5218" cy="2.6087" r="2.6087" fill="#888888"/>
<circle cx="143.478" cy="2.6087" r="2.6087" fill="#888888"/>
<circle cx="190.435" cy="2.6087" r="2.6087" fill="#888888"/>
<circle cx="237.392" cy="2.6087" r="2.6087" fill="#888888"/>
<circle cx="2.6087" cy="49.5652" r="2.6087" fill="#888888"/>
<circle cx="49.5648" cy="49.5652" r="2.6087" fill="#888888"/>
<circle cx="96.5218" cy="49.5652" r="2.6087" fill="#888888"/>
<circle cx="143.478" cy="49.5652" r="2.6087" fill="#888888"/>
<circle cx="190.435" cy="49.5652" r="2.6087" fill="#888888"/>
<circle cx="237.392" cy="49.5652" r="2.6087" fill="#888888"/>
<circle cx="2.6087" cy="96.5218" r="2.6087" fill="#888888"/>
<circle cx="49.5648" cy="96.5218" r="2.6087" fill="#888888"/>
<circle cx="96.5218" cy="96.5218" r="2.6087" fill="#888888"/>
<circle cx="143.478" cy="96.5218" r="2.6087" fill="#888888"/>
<circle cx="190.435" cy="96.5218" r="2.6087" fill="#888888"/>
<circle cx="237.392" cy="96.5218" r="2.6087" fill="#888888"/>
<circle cx="2.6087" cy="143.478" r="2.6087" fill="#888888"/>
<circle cx="49.5648" cy="143.478" r="2.6087" fill="#888888"/>
<circle cx="96.5218" cy="143.478" r="2.6087" fill="#888888"/>
<circle cx="143.478" cy="143.478" r="2.6087" fill="#888888"/>
<circle cx="190.435" cy="143.478" r="2.6087" fill="#888888"/>
<circle cx="237.392" cy="143.478" r="2.6087" fill="#888888"/>
<circle cx="2.6087" cy="190.435" r="2.6087" fill="#888888"/>
<circle cx="49.5648" cy="190.435" r="2.6087" fill="#888888"/>
<circle cx="96.5218" cy="190.435" r="2.6087" fill="#888888"/>
<circle cx="143.478" cy="190.435" r="2.6087" fill="#888888"/>
<circle cx="190.435" cy="190.435" r="2.6087" fill="#888888"/>
<circle cx="237.392" cy="190.435" r="2.6087" fill="#888888"/>
<circle cx="2.6087" cy="237.391" r="2.6087" fill="#888888"/>
<circle cx="49.5648" cy="237.391" r="2.6087" fill="#888888"/>
<circle cx="96.5218" cy="237.391" r="2.6087" fill="#888888"/>
<circle cx="143.478" cy="237.391" r="2.6087" fill="#888888"/>
<circle cx="190.435" cy="237.391" r="2.6087" fill="#888888"/>
<circle cx="237.392" cy="237.391" r="2.6087" fill="#888888"/>
</svg>
