<svg width="239" height="157" viewBox="0 0 239 157" fill="none" xmlns="http://www.w3.org/2000/svg">
<path d="M217 8H22C14.268 8 8 14.268 8 22V115.355C8 121.125 12.6768 125.801 18.446 125.801C23.4201 125.801 27.7043 129.309 28.6864 134.185L30.5748 143.562C31.5386 148.348 37.5098 150.041 40.8418 146.473L55.996 130.246C58.6436 127.411 62.3488 125.801 66.2279 125.801H217C224.732 125.801 231 119.533 231 111.801V22C231 14.268 224.732 8 217 8Z" fill="white"/>
<path d="M217 4H22C12.0589 4 4 12.0589 4 22V115.355C4 123.334 10.4677 129.801 18.446 129.801C21.5154 129.801 24.1591 131.966 24.7651 134.975L26.6535 144.352C28.2599 152.328 38.2118 155.149 43.7652 149.203L58.9194 132.976C60.8105 130.951 63.4571 129.801 66.2279 129.801H217C226.941 129.801 235 121.742 235 111.801V22C235 12.0589 226.941 4 217 4Z" stroke="white" stroke-opacity="0.3" stroke-width="8"/>
</svg>
